<?xml version="1.0" standalone="no"?>
<!DOCTYPE svg PUBLIC "-//W3C//DTD SVG 20010904//EN"
 "http://www.w3.org/TR/2001/REC-SVG-20010904/DTD/svg10.dtd">
<svg version="1.0" xmlns="http://www.w3.org/2000/svg"
 width="871.000000pt" height="871.000000pt" viewBox="0 0 871.000000 871.000000"
 preserveAspectRatio="xMidYMid meet">
<metadata>
Created by potrace 1.11, written by Peter Selinger 2001-2013
</metadata>
<g transform="translate(0.000000,871.000000) scale(0.100000,-0.100000)"
fill="#000000" stroke="none">
<path d="M4574 7785 c-26 -26 -26 -18 -9 -335 9 -168 9 -270 2 -271 -10 -2
-310 180 -318 193 -3 6 -27 12 -53 14 -39 4 -50 1 -71 -20 -27 -27 -30 -51
-15 -106 5 -19 11 -46 13 -60 3 -14 19 -90 37 -170 17 -80 34 -156 36 -169 3
-12 11 -51 19 -85 8 -33 17 -75 20 -93 3 -18 9 -43 15 -57 7 -21 6 -26 -5 -26
-8 0 -15 5 -15 10 0 6 -6 10 -14 10 -8 0 -16 3 -18 8 -1 4 -30 27 -63 51 -33
25 -61 48 -63 53 -2 4 -8 8 -14 8 -6 0 -23 10 -38 23 -55 44 -95 73 -176 130
-89 61 -92 60 -48 -24 8 -17 13 -33 11 -36 -3 -2 -29 13 -58 34 -29 21 -51 33
-48 28 3 -6 11 -23 18 -40 7 -16 18 -38 23 -48 5 -11 7 -21 4 -24 -4 -5 -56
29 -84 55 -21 19 -23 14 -8 -20 8 -18 57 -134 110 -258 53 -124 103 -238 110
-255 38 -84 56 -125 56 -130 0 -2 11 -28 24 -57 13 -29 54 -123 91 -208 37
-85 78 -165 91 -177 27 -25 68 -23 96 5 28 28 58 161 73 324 2 20 6 41 9 47 4
6 36 -3 79 -21 39 -16 95 -39 122 -51 28 -11 64 -26 80 -33 81 -34 165 -66
182 -68 28 -5 53 13 68 46 11 28 8 48 -31 197 -25 91 -46 173 -49 181 -2 8
-17 68 -33 133 -17 66 -33 122 -36 125 -4 3 -15 7 -26 9 -38 6 -45 8 -52 18
-12 16 -10 23 12 45 16 16 25 18 40 10 11 -6 20 -21 20 -33 0 -12 4 -27 8 -34
8 -12 71 -29 140 -38 20 -3 48 -7 62 -10 14 -3 50 -9 80 -15 30 -5 69 -12 85
-16 17 -3 55 -8 86 -11 52 -5 58 -3 78 23 13 17 20 38 18 53 -2 14 -34 89 -71
166 -38 77 -99 204 -137 282 -92 191 -358 726 -363 731 -3 2 -21 5 -41 7 -29
3 -43 -2 -61 -20z m131 -134 c1 -39 1 -70 -1 -69 -1 2 -17 32 -34 66 -28 57
-32 91 -10 77 5 -3 12 0 15 6 15 23 27 -11 30 -80z m-75 -12 c3 -38 3 -69 0
-69 -3 0 -20 28 -37 62 l-32 62 27 12 c15 6 29 9 32 7 3 -3 7 -36 10 -74z
m-375 -357 c-2 -3 -11 1 -20 8 -12 10 -13 16 -3 27 10 13 13 11 20 -8 5 -12 6
-24 3 -27z m-68 -44 c-3 -8 -6 -5 -6 6 -1 11 2 17 5 13 3 -3 4 -12 1 -19z
m435 -99 c35 -25 37 -72 3 -77 -30 -3 -42 9 -48 50 -7 54 0 58 45 27z m561
-455 c9 -9 -4 -34 -18 -34 -7 0 -15 9 -18 20 -4 14 0 20 12 20 10 0 20 -3 24
-6z m-48 -74 c5 -8 -23 -36 -29 -29 -2 2 -7 14 -10 26 -6 18 -4 20 14 16 11
-3 22 -9 25 -13z m-820 -64 c17 -12 31 -21 31 -21 1 0 5 -19 9 -42 5 -35 4
-43 -8 -43 -20 0 -73 45 -74 62 -1 7 -4 28 -9 47 -8 37 -8 37 51 -3z m0 -395
c-8 -36 -6 -35 -37 -18 -31 16 -31 28 1 48 32 21 45 10 36 -30z m481 -63 c4 4
2 -1 -5 -10 -18 -24 -31 -23 -31 3 0 17 3 19 13 10 8 -6 18 -7 23 -3z m-68
-56 c10 -7 8 -12 -7 -26 -18 -16 -18 -16 -18 9 0 27 4 30 25 17z m-495 -203
c-17 -17 -33 7 -27 40 l7 33 14 -33 c7 -18 10 -36 6 -40z m-80 21 c6 -23 -3
-32 -22 -21 -8 5 -11 17 -6 30 7 24 20 21 28 -9z"/>
<path d="M8578 7574 c-2 -1 -23 -5 -48 -8 -25 -4 -56 -9 -70 -11 -14 -3 -38
-7 -55 -9 -16 -3 -66 -10 -110 -17 -44 -6 -89 -13 -100 -14 -11 -2 -67 -11
-125 -21 -58 -9 -113 -17 -122 -16 -10 0 -20 -4 -23 -9 -4 -5 -10 -7 -15 -4
-5 3 -48 -1 -97 -9 -107 -18 -169 -28 -266 -41 -16 -2 -40 -6 -55 -9 -15 -3
-43 -8 -62 -11 -41 -5 -84 -12 -125 -19 -16 -3 -48 -7 -70 -11 -23 -3 -50 -7
-60 -9 -11 -2 -45 -7 -75 -11 -30 -4 -64 -9 -75 -11 -11 -2 -36 -6 -55 -9 -19
-3 -46 -7 -60 -10 -23 -4 -67 -11 -140 -21 -19 -3 -57 -9 -85 -14 -27 -5 -68
-12 -90 -15 -23 -3 -50 -7 -60 -9 -11 -2 -40 -7 -65 -11 -25 -4 -52 -9 -60
-10 -8 -1 -40 -6 -70 -11 -30 -4 -57 -8 -60 -9 -3 -1 -33 -5 -68 -10 -101 -12
-91 -21 58 -51 35 -7 35 -7 8 -14 -14 -5 -54 -11 -87 -15 -34 -4 -61 -10 -61
-14 0 -8 149 -37 165 -32 7 1 7 -1 0 -7 -5 -6 -30 -12 -55 -16 -25 -3 -61 -8
-80 -12 l-35 -6 1 76 c1 72 0 76 -20 72 -39 -8 -53 -17 -64 -41 -22 -49 4 -99
58 -109 8 -2 31 -6 50 -10 19 -4 42 -8 50 -10 8 -2 33 -6 55 -11 22 -4 47 -9
55 -10 8 -2 80 -17 160 -33 80 -17 159 -33 175 -36 17 -2 41 -8 55 -11 25 -6
96 -20 155 -31 17 -3 37 -7 45 -11 8 -3 29 -7 47 -10 95 -14 92 -16 -129 -88
-117 -38 -215 -69 -218 -70 -3 -1 -32 -9 -65 -20 -33 -10 -63 -19 -67 -21 -5
-1 -10 -3 -13 -4 -3 -1 -9 -4 -15 -5 -5 -1 -12 -4 -15 -5 -3 -1 -8 -3 -12 -4
-12 -3 -605 -196 -623 -203 -8 -3 -22 -7 -31 -9 -9 -2 -29 -9 -45 -15 -16 -7
-31 -13 -34 -14 -3 -1 -24 -7 -47 -13 -59 -17 -63 -32 -9 -33 25 -1 51 -3 56
-4 6 -1 20 -3 33 -4 22 -2 22 -2 -3 -12 -14 -6 -32 -12 -40 -14 -8 -2 -28 -8
-43 -14 -47 -18 -57 -14 -57 24 0 39 -6 42 -38 19 -36 -25 -45 -50 -31 -89 15
-40 34 -47 166 -60 37 -4 82 -9 98 -11 17 -2 55 -6 85 -9 30 -3 73 -8 95 -10
77 -9 170 -18 197 -19 43 -2 40 -10 -14 -39 -118 -63 -267 -142 -347 -184 -47
-24 -90 -48 -95 -54 -6 -5 -18 -9 -27 -9 -10 0 -19 -3 -21 -7 -1 -5 -46 -30
-98 -56 -235 -120 -315 -162 -320 -167 -3 -3 -32 -18 -65 -34 -33 -16 -62 -32
-65 -35 -3 -3 -41 -24 -85 -46 -44 -21 -82 -42 -85 -45 -3 -3 -24 -14 -48 -25
-67 -31 -83 -85 -39 -135 19 -22 47 -23 357 -5 175 11 249 15 380 21 74 3 151
8 170 10 68 8 118 9 113 2 -2 -5 -9 -8 -15 -8 -6 0 -45 -16 -87 -36 -42 -20
-94 -44 -116 -54 -183 -85 -435 -210 -435 -215 0 -3 9 -4 20 0 11 3 32 8 47
11 16 3 53 11 83 18 30 8 69 17 85 20 27 6 28 5 10 -6 -11 -7 -22 -13 -25 -13
-12 -3 -200 -98 -197 -101 1 -2 43 6 92 17 50 11 103 22 119 25 16 3 33 7 38
10 4 3 8 3 8 -1 0 -3 -55 -32 -122 -65 -80 -39 -111 -58 -89 -54 28 4 230 47
326 69 11 2 43 9 70 15 28 6 77 17 110 25 33 8 75 17 94 20 19 3 37 7 40 9 3
2 24 7 46 10 22 4 47 8 55 11 8 2 27 6 43 9 15 3 35 7 45 10 9 3 29 8 45 11
57 11 85 17 197 41 63 14 129 28 145 30 17 3 37 8 45 11 8 3 24 7 35 9 11 1
97 19 190 39 94 21 180 39 192 41 12 2 33 8 47 14 13 5 26 7 28 5 2 -2 25 2
52 10 26 8 51 14 54 14 4 -1 9 0 12 1 9 3 62 14 125 25 17 3 44 10 60 15 17 5
49 12 73 15 53 9 49 15 -15 21 -26 2 -61 6 -78 8 -16 3 -39 5 -49 5 -11 1 -17
3 -15 5 4 4 185 46 199 46 3 0 7 -14 8 -32 3 -41 7 -44 37 -30 53 24 51 105
-2 130 -36 16 -67 16 -56 0 4 -7 9 -24 11 -37 l3 -24 -78 8 c-43 4 -90 8 -105
8 -26 1 -30 17 -4 17 31 0 156 33 156 41 0 5 -10 8 -22 8 -21 -1 -68 3 -178
16 -69 8 -118 13 -195 21 -38 3 -86 8 -105 10 -19 2 -62 6 -95 9 -33 3 -82 7
-110 10 -27 3 -72 7 -100 10 -27 3 -72 7 -99 10 -54 5 -73 14 -35 17 32 2 40
3 64 11 11 3 35 9 54 12 19 3 37 8 41 10 4 2 22 7 41 10 19 3 62 13 95 21 34
8 73 16 86 18 13 1 28 5 33 8 10 5 73 20 105 24 8 1 42 9 75 17 33 9 71 18 85
21 21 4 74 16 130 30 76 20 166 39 173 38 4 -1 16 2 25 7 10 5 38 12 62 16 25
4 48 9 52 12 5 2 20 6 33 9 14 2 62 13 108 24 45 10 93 21 107 24 14 3 53 12
87 20 34 9 76 18 94 21 75 13 110 53 95 108 -12 45 -12 45 -146 63 -47 6 -111
16 -132 20 -9 1 -43 6 -75 9 -32 4 -69 8 -83 10 -101 12 -146 18 -151 21 -3 2
-33 6 -66 9 -33 3 -69 7 -81 10 -11 2 -49 6 -84 10 -57 6 -98 20 -66 23 16 1
38 7 58 15 8 4 53 18 100 32 47 14 94 30 105 35 11 5 49 18 85 29 61 19 828
276 969 324 65 22 88 44 96 90 9 44 -39 74 -145 91 -14 2 -43 9 -65 14 -22 6
-51 13 -65 16 -58 11 -181 39 -270 61 -36 9 -72 18 -80 20 -8 2 -23 4 -32 4
-10 1 -18 4 -18 9 0 6 100 69 228 142 15 9 52 31 83 50 87 55 91 58 139 86 25
14 68 41 95 59 96 62 130 82 136 81 8 -2 34 27 48 52 25 47 -19 103 -81 100
-21 -1 -39 -2 -40 -4z m31 -34 c11 -34 9 -36 -44 -43 -16 -3 -47 -8 -67 -12
-21 -4 -38 -5 -38 -3 0 7 100 68 111 68 5 0 9 5 9 10 0 22 19 8 29 -20z m28
-70 c13 -34 10 -38 -43 -45 -22 -3 -57 -8 -79 -11 l-40 -6 70 46 c39 24 72 45
75 45 3 1 11 -12 17 -29z m-740 -446 c55 -10 57 -19 12 -46 -37 -22 -48 -24
-73 -15 -17 6 -34 15 -38 20 -7 11 52 57 65 50 4 -3 19 -7 34 -9z m-637 -149
c8 -2 24 -4 35 -4 31 -1 6 -17 -60 -39 -45 -14 -68 -17 -90 -10 -44 13 -57 16
-85 18 l-25 1 25 11 c80 33 124 39 200 23z m1295 -38 c-2 -41 -11 -45 -65 -28
l-51 15 48 17 c64 23 69 23 68 -4z m-2 -69 c2 -7 2 -21 -1 -31 -4 -14 -11 -16
-41 -11 -63 11 -68 20 -20 37 55 19 56 20 62 5z m-2870 -490 c26 -1 47 -4 47
-7 0 -3 -30 -16 -67 -28 -72 -24 -83 -21 -83 25 0 20 4 23 28 18 15 -3 48 -7
75 -8z m1485 -14 c40 -4 34 -9 -40 -33 -57 -19 -83 -22 -132 -16 -93 9 -98 19
-25 44 62 20 76 20 197 5z m-751 -68 c-2 -6 -21 -20 -43 -33 -28 -16 -53 -22
-91 -21 -47 1 -85 12 -73 20 60 39 89 48 147 45 35 -1 62 -6 60 -11z m1611
-89 c-3 -29 -6 -32 -33 -28 -46 6 -78 9 -102 10 -13 1 -23 6 -23 11 0 6 10 10
23 11 12 0 38 6 57 12 19 7 45 14 58 15 21 2 23 -2 20 -31z m2 -82 c0 -23 -4
-34 -11 -30 -5 4 -29 9 -52 11 -101 11 -118 19 -61 30 22 3 45 10 51 13 7 4
26 8 43 9 28 2 30 0 30 -33z m-1735 -390 c44 -4 90 -8 103 -8 35 -2 13 -13
-53 -26 -33 -7 -72 -17 -86 -21 -24 -7 -110 -5 -174 4 -16 3 -41 5 -55 6 l-25
1 25 11 c14 5 36 12 51 14 14 3 47 10 75 17 27 7 51 12 54 11 3 -1 41 -5 85
-9z m-1275 -185 c0 -3 -20 -14 -45 -24 -25 -11 -45 -23 -45 -28 0 -21 -34 -1
-41 24 -6 24 -4 27 20 30 45 5 111 4 111 -2z m1100 -70 c0 -6 -3 -9 -7 -8 -5
1 -18 -3 -30 -10 -13 -7 -35 -11 -50 -8 -16 2 -55 5 -88 5 l-60 1 80 34 80 33
38 -19 c20 -10 37 -23 37 -28z m-1120 -28 c-79 -40 -93 -45 -87 -29 3 8 1 20
-3 27 -14 23 -3 27 72 29 l73 1 -55 -28z"/>
<path d="M130 7153 c1 -4 32 -28 70 -53 38 -25 65 -46 60 -48 -5 -2 -44 6 -86
18 -42 11 -78 19 -80 17 -2 -1 31 -26 74 -55 42 -29 72 -52 67 -52 -6 0 -49
11 -97 23 -49 13 -88 23 -88 22 0 -1 19 -15 43 -31 65 -44 191 -133 202 -142
6 -4 46 -32 90 -62 44 -30 86 -60 93 -67 7 -7 17 -13 22 -13 5 0 15 -6 22 -13
7 -7 49 -38 93 -68 159 -109 221 -153 256 -181 20 -15 41 -28 47 -28 6 0 12
-3 14 -8 2 -4 50 -41 108 -82 58 -41 110 -79 116 -84 6 -6 -87 -59 -270 -151
-476 -240 -524 -267 -532 -301 -9 -35 3 -72 29 -86 24 -13 20 -13 722 -23 519
-7 1010 -15 1118 -17 37 0 67 -2 67 -3 0 -1 -10 -13 -22 -27 -13 -13 -43 -48
-68 -78 -25 -30 -54 -64 -65 -76 -12 -12 -39 -44 -60 -70 -22 -26 -49 -57 -60
-69 -11 -13 -40 -47 -65 -75 -25 -29 -50 -58 -56 -64 -9 -10 -190 -220 -235
-274 -42 -49 -37 -122 10 -146 30 -16 59 -11 211 35 36 10 74 21 85 24 11 2
56 13 100 25 44 12 87 23 95 25 8 2 15 4 15 5 0 2 20 7 59 15 16 3 36 10 45
14 9 5 18 9 21 9 3 -1 14 2 25 5 11 3 166 44 345 92 179 48 332 89 340 92 8 4
20 7 25 8 6 1 12 3 15 4 3 2 12 4 20 6 26 7 59 15 78 20 27 7 225 61 367 100
72 20 141 38 155 41 14 2 32 7 40 10 8 4 25 8 37 9 41 6 136 37 162 53 53 34
65 66 44 110 -22 45 -71 64 -177 68 -275 12 -552 27 -579 32 -14 3 85 127 181
228 68 72 87 134 52 172 -11 12 -24 23 -28 23 -4 1 -16 3 -27 4 -11 1 -43 6
-70 10 -28 5 -61 9 -75 10 -14 2 -42 5 -62 9 -21 3 -54 8 -73 11 -19 3 -51 7
-70 10 -90 13 -170 23 -230 30 -36 4 -97 13 -145 20 -19 2 -55 7 -80 10 -25 4
-56 8 -70 10 -14 2 -45 6 -70 9 -25 4 -54 8 -65 10 -11 3 -33 5 -50 5 l-30 1
30 14 c17 8 77 33 135 56 58 24 133 55 168 71 34 16 66 29 71 29 13 0 39 34
42 55 8 58 -21 81 -146 113 -44 12 -132 35 -195 52 -63 17 -173 47 -245 66
-185 50 -300 81 -380 104 -38 11 -77 22 -85 24 -8 2 -42 11 -75 20 -74 21 -94
26 -121 31 -12 3 -40 11 -63 19 -22 9 -41 13 -41 11 0 -2 -16 3 -35 11 -19 8
-35 12 -35 10 0 -3 -18 1 -39 9 -22 7 -42 11 -45 8 -3 -4 -6 0 -6 7 0 7 -3 11
-6 8 -3 -3 -53 7 -112 23 -102 29 -128 36 -162 44 -8 2 -15 4 -15 5 0 1 -7 3
-15 5 -8 1 -60 15 -115 30 -55 15 -107 29 -115 30 -8 2 -15 4 -15 5 0 1 -7 3
-15 5 -8 1 -51 13 -95 24 -44 12 -91 24 -105 27 -14 3 -34 8 -45 11 -11 4 -24
8 -30 9 -5 1 -46 12 -90 23 -44 12 -88 24 -98 26 -10 2 -27 7 -38 10 -10 4
-19 3 -19 -2z m2494 -710 c10 -25 -5 -31 -44 -20 l-35 10 30 13 c39 17 42 17
49 -3z m10 -86 c5 -31 6 -31 -45 -15 l-39 11 37 17 c21 10 39 17 40 16 1 -1 4
-14 7 -29z m-1366 -104 c11 -20 -2 -63 -18 -63 -22 0 -69 34 -70 50 0 8 42 27
62 29 10 0 21 -7 26 -16z m992 -89 c9 -3 -9 -15 -45 -30 -58 -24 -74 -25 -167
-11 -34 6 -28 15 19 33 26 9 52 20 56 24 8 7 107 -5 137 -16z m-1718 -326 c-4
-3 -28 -18 -54 -32 -39 -22 -47 -23 -52 -10 -16 42 -8 50 53 49 33 0 57 -3 53
-7z m27 -72 c-24 -23 -138 -72 -116 -50 3 3 2 17 -3 30 -9 24 -9 24 57 24 36
0 64 -2 62 -4z m1858 -42 c2 -6 -7 -22 -20 -36 -22 -23 -35 -26 -100 -19 -4 1
4 17 19 37 23 30 32 35 62 32 20 -2 37 -8 39 -14z m745 -148 c-23 -38 -55 -63
-77 -61 -49 6 -55 20 -24 54 16 17 30 21 64 20 28 -2 42 -7 37 -13z m678 -76
c0 -16 -7 -20 -35 -20 -38 0 -49 15 -14 17 12 1 27 7 32 12 15 15 17 14 17 -9z
m-15 -88 c-9 -9 -38 -12 -49 -4 -6 3 0 9 14 12 26 7 46 2 35 -8z m-2090 -492
c-21 -24 -41 -26 -48 -6 -4 10 2 16 16 19 48 9 51 8 32 -13z m47 -62 c-6 -6
-16 -7 -22 -3 -9 6 -9 9 1 16 17 10 34 0 21 -13z"/>
<path d="M4215 5256 c-185 -58 -295 -296 -214 -461 28 -58 79 -117 125 -146
32 -19 32 -19 19 -62 -7 -23 -20 -60 -29 -82 -14 -36 -277 -777 -297 -835 -4
-14 -20 -56 -34 -95 -14 -38 -28 -77 -30 -85 -2 -8 -22 -67 -45 -130 -23 -63
-46 -126 -50 -140 -5 -14 -23 -63 -40 -110 -17 -47 -32 -89 -33 -95 -1 -5 -8
-23 -14 -40 -21 -57 -26 -70 -29 -80 -3 -13 -83 -236 -91 -255 -3 -8 -7 -21
-9 -27 -1 -7 -14 -43 -27 -80 -14 -38 -42 -115 -62 -173 -20 -58 -54 -152 -75
-210 -21 -58 -43 -123 -50 -145 -7 -22 -15 -44 -19 -50 -3 -5 -6 -12 -6 -15 0
-3 -5 -18 -12 -35 -6 -16 -35 -97 -63 -180 -29 -82 -58 -163 -65 -180 -10 -24
-46 -126 -50 -145 -1 -3 -4 -12 -8 -20 -3 -8 -17 -46 -30 -85 -14 -38 -43
-120 -65 -181 -22 -61 -41 -119 -43 -130 -9 -62 51 -100 111 -69 22 11 33 29
50 82 13 38 25 73 29 78 3 6 6 15 7 20 2 11 90 259 101 285 3 8 7 20 9 25 1 6
23 69 49 140 26 72 48 137 51 145 11 43 50 140 56 140 4 0 217 -210 474 -466
466 -466 467 -466 503 -461 32 4 89 58 503 472 l467 467 14 -48 c8 -27 46
-137 85 -244 39 -107 89 -249 112 -315 22 -66 45 -129 50 -140 5 -11 19 -49
31 -85 33 -97 75 -124 140 -90 33 18 32 48 -6 158 -20 59 -40 116 -46 127 -6
12 -11 28 -13 38 -1 9 -5 20 -9 23 -4 4 -7 17 -7 29 0 11 -4 25 -9 30 -5 6
-19 42 -31 80 -13 39 -27 76 -33 83 -5 6 -7 12 -4 12 3 0 -14 51 -37 112 -23
62 -57 160 -76 218 -19 58 -37 107 -40 110 -3 3 -21 52 -40 110 -19 58 -40
116 -47 130 -7 14 -13 32 -13 41 0 9 -3 19 -7 23 -4 3 -8 12 -9 19 -3 12 -20
65 -35 102 -9 24 -46 127 -89 250 -17 50 -43 119 -56 155 -13 36 -24 68 -24
72 0 4 -5 19 -12 35 -6 15 -12 33 -14 38 -1 6 -34 98 -74 205 -39 107 -72 200
-73 205 -12 42 -41 122 -48 129 -5 6 -9 20 -9 32 0 13 -4 26 -10 29 -5 3 -10
15 -10 26 0 10 -4 27 -10 37 -5 9 -37 96 -70 192 -34 96 -70 198 -80 225 -28
75 -71 198 -75 215 -2 8 -16 47 -30 85 -15 39 -31 81 -35 95 -10 32 -66 189
-75 212 -5 12 2 21 23 32 36 19 109 91 128 127 18 35 44 112 39 117 -2 2 -12
-1 -23 -7 -46 -25 -112 -2 -112 39 0 19 -10 7 -15 -19 -11 -58 -68 -125 -118
-138 -94 -25 -170 1 -220 75 -82 121 -5 272 146 289 78 8 172 -60 191 -139 l6
-27 25 25 c31 31 80 32 107 2 l19 -22 -6 34 c-17 97 -95 197 -191 244 -65 32
-175 42 -239 22z m13 -1072 l0 -175 -94 -96 c-52 -53 -96 -94 -98 -92 -2 2 1
15 7 29 5 14 11 30 13 35 2 10 27 82 81 230 13 39 27 77 30 85 3 8 7 20 9 25
1 6 8 24 15 40 7 17 13 32 14 35 9 38 16 60 20 60 2 0 3 -79 3 -176z m212 11
c10 -27 21 -59 26 -70 4 -11 8 -24 10 -30 1 -5 19 -55 39 -110 20 -55 38 -105
39 -112 1 -7 5 -16 9 -19 4 -4 7 -14 7 -21 0 -8 -43 29 -95 82 -93 93 -95 97
-96 143 -1 81 0 287 1 292 1 5 21 -47 60 -155z m-214 -480 l-1 -75 -85 -85
c-46 -47 -88 -85 -91 -85 -4 0 -22 16 -41 35 l-33 35 -28 -26 c-30 -28 -32
-25 -15 22 10 28 14 31 30 21 16 -11 33 3 140 111 67 67 122 122 123 122 1 0
1 -34 1 -75z m403 -170 c1 -10 -59 -75 -71 -75 -4 0 -46 38 -93 83 l-85 84 0
78 0 79 124 -119 c68 -66 124 -124 125 -130z m49 -22 l11 -37 -26 26 c-14 14
-22 31 -19 37 12 20 22 12 34 -26z m-451 -163 c-1 -33 -4 -60 -7 -60 -4 0 -19
14 -35 30 l-29 30 33 30 c18 17 34 30 36 30 1 0 2 -27 2 -60z m200 21 l22 -28
-34 -33 -35 -34 0 67 c0 73 8 77 47 28z m-537 -76 c-30 -30 -55 -53 -56 -52
-3 3 43 135 52 149 3 5 17 -3 32 -17 l26 -26 -54 -54z m858 27 c12 -37 22 -72
22 -77 0 -6 -22 14 -50 43 -27 29 -50 56 -50 59 0 10 34 42 45 42 6 1 20 -30
33 -67z m-627 -151 l69 -68 -65 -49 c-36 -27 -88 -66 -114 -86 -27 -21 -53
-38 -57 -38 -12 0 -104 92 -104 104 0 8 188 202 198 205 2 1 35 -30 73 -68z
m641 -131 c5 0 21 11 36 25 15 14 31 25 36 25 5 0 7 -3 4 -6 -3 -3 3 -28 13
-57 10 -28 19 -55 19 -59 0 -19 -32 -5 -66 27 -19 19 -38 35 -41 35 -2 0 -21
-17 -41 -37 -70 -72 -58 -73 -181 18 -61 45 -111 87 -111 92 0 6 29 38 65 73
l64 62 97 -99 c54 -54 102 -99 106 -99z m-942 -30 c-13 -11 -25 -20 -27 -20
-1 0 -3 21 -3 47 l0 48 27 -27 27 -27 -24 -21z m-25 -198 c-47 -43 -155 -114
-155 -103 0 6 4 19 10 29 5 9 21 51 36 92 22 64 28 83 33 109 1 2 25 -20 54
-48 l52 -51 -30 -28z m662 74 c39 -29 75 -55 82 -57 7 -3 -24 -42 -73 -92
l-86 -87 0 145 c0 80 2 145 4 145 2 0 35 -24 73 -54z m508 -176 c12 -20 -6 -9
-95 57 l-91 66 33 36 c74 79 67 82 109 -41 21 -60 41 -113 44 -118z m-739 85
c0 -74 -3 -135 -6 -135 -3 0 -41 36 -84 79 l-77 79 73 55 c40 31 78 56 84 56
6 1 10 -45 10 -134z m-133 -282 c-19 -13 -36 -23 -38 -23 -2 0 -45 -25 -95
-55 -50 -30 -96 -55 -103 -55 -8 0 -50 36 -94 80 l-81 79 126 95 127 94 96
-96 96 -96 -34 -23z m825 28 c1 -3 -35 -43 -80 -88 l-83 -81 -132 77 c-72 42
-133 80 -135 84 -2 5 39 50 91 102 l93 93 122 -90 c66 -50 122 -93 124 -97z
m109 -9 l20 -62 -21 6 c-17 5 -59 32 -95 61 -3 2 11 19 29 38 19 19 37 32 41
28 3 -5 15 -36 26 -71z m-1357 12 c0 -5 -14 -22 -31 -37 l-30 -26 2 47 c4 68
7 73 35 47 13 -12 24 -26 24 -31z m-35 -170 c75 -76 76 -77 56 -95 -11 -11
-27 -19 -35 -19 -8 0 -16 -4 -18 -8 -1 -4 -34 -26 -73 -48 -38 -22 -82 -48
-97 -58 l-27 -18 5 28 c3 15 9 34 13 43 5 9 22 57 39 106 40 119 50 145 57
145 3 0 39 -34 80 -76z m1455 -19 c18 -49 39 -112 47 -140 9 -27 20 -56 26
-63 5 -7 8 -14 5 -17 -3 -4 -138 73 -218 124 -14 8 -29 16 -35 16 -29 1 -7 39
60 104 42 41 77 72 79 70 3 -2 19 -44 36 -94z m-864 -145 c0 -115 -1 -210 -1
-210 -9 0 -255 255 -253 262 2 5 59 42 128 83 69 40 125 74 126 74 0 1 0 -93
0 -209z m196 180 c9 0 192 -109 205 -123 10 -10 -13 -38 -117 -142 l-130 -130
0 214 c0 207 1 214 18 198 10 -10 21 -17 24 -17z m-395 -408 l199 -199 0 -316
c0 -175 -1 -317 -2 -317 -2 0 -742 741 -773 773 l-23 25 39 25 c21 14 61 37
88 52 28 14 97 55 155 90 58 35 108 63 112 64 3 1 96 -88 205 -197z m811 166
c31 -17 89 -50 127 -73 39 -23 103 -61 144 -85 l73 -42 -398 -399 -399 -398
-3 317 -2 317 197 197 c109 109 199 198 201 198 2 0 29 -14 60 -32z m-1430
-181 c13 -15 6 -27 -25 -44 -23 -13 -24 -9 -9 35 8 25 19 28 34 9z m1830 -30
l12 -27 -30 15 c-33 17 -36 25 -18 43 14 14 19 9 36 -31z"/>
<path d="M5149 5011 c-56 -44 -15 -131 61 -131 19 0 21 4 15 28 -4 15 -17 48
-29 75 l-23 47 -24 -19z"/>
<path d="M4278 4992 c-34 -23 -39 -33 -34 -71 8 -62 66 -87 112 -48 66 58 -6
168 -78 119z"/>
<path d="M5928 4669 c-41 -15 -40 -13 -64 -424 -3 -49 -7 -121 -9 -160 -5 -72
-17 -270 -18 -292 -1 -19 -9 -16 -42 15 -40 35 -180 160 -224 198 -19 16 -39
34 -45 39 -6 6 -45 39 -86 75 -41 36 -77 67 -80 70 -3 3 -46 40 -97 82 -86 73
-91 75 -81 45 6 -18 14 -36 18 -42 5 -5 17 -27 29 -48 21 -38 21 -38 1 -24
-11 8 -36 28 -55 46 -19 17 -39 31 -45 31 -5 0 -10 5 -10 12 0 6 -2 9 -5 6 -3
-3 12 -40 34 -83 34 -65 34 -79 1 -45 -3 3 -28 25 -57 48 l-52 43 33 -63 c18
-35 60 -115 93 -178 103 -195 255 -489 431 -830 181 -352 214 -415 224 -427 6
-7 7 -13 3 -13 -4 0 -2 -7 5 -15 7 -9 23 -35 35 -58 73 -143 160 -304 172
-318 8 -9 26 -19 41 -22 31 -6 81 17 83 38 1 8 2 18 3 23 1 4 6 27 10 52 5 25
10 54 12 65 3 11 7 36 10 55 3 19 14 85 24 145 11 61 22 128 26 150 3 22 12
72 19 110 7 39 21 114 30 168 10 53 19 97 20 97 3 0 34 -53 81 -135 6 -11 25
-44 42 -73 18 -29 32 -57 32 -62 0 -6 3 -10 8 -10 4 0 18 -21 32 -47 22 -44
36 -67 85 -148 10 -16 18 -32 18 -35 0 -3 7 -16 17 -30 17 -25 64 -102 103
-170 40 -71 130 -226 146 -250 8 -14 16 -27 16 -30 1 -3 10 -21 22 -40 68
-112 233 -392 233 -395 0 -1 32 -55 70 -119 39 -65 70 -121 70 -125 0 -4 10
-17 23 -29 31 -29 77 -29 105 1 23 24 24 30 37 206 3 41 7 102 10 135 6 71 14
175 20 261 2 33 7 103 11 155 4 52 7 105 7 118 -1 33 -3 36 142 -223 15 -27
41 -75 57 -105 16 -30 33 -59 37 -65 5 -5 22 -36 40 -67 60 -111 95 -174 143
-257 26 -46 48 -85 48 -87 0 -2 18 -33 40 -69 22 -36 40 -67 40 -69 0 -9 75
-131 82 -134 5 -2 8 -10 8 -18 0 -18 86 -144 113 -166 31 -25 64 -22 92 7 30
29 31 56 4 155 -11 41 -21 82 -23 90 -5 20 -437 1321 -578 1740 -60 179 -111
332 -113 340 -3 8 -29 87 -60 175 -31 88 -65 188 -76 222 -21 67 -47 93 -89
93 -36 0 -65 -34 -89 -105 -11 -33 -47 -141 -81 -240 -33 -99 -64 -187 -67
-195 -3 -8 -8 -23 -10 -33 -1 -10 -10 -31 -18 -47 -9 -17 -16 -33 -16 -37 -1
-5 -3 -12 -4 -18 -4 -14 -74 -213 -89 -254 l-13 -34 -84 137 c-46 75 -91 149
-100 164 -9 15 -48 79 -87 142 -39 63 -100 162 -135 220 -35 58 -88 143 -117
190 -29 47 -71 114 -92 150 -59 98 -63 105 -68 110 -8 8 -29 43 -42 70 -7 14
-17 30 -23 37 -5 6 -66 104 -134 216 -81 133 -132 209 -148 216 -28 13 -29 13
-65 0z m105 -116 c-3 -27 -7 -49 -8 -51 -2 -2 -14 17 -28 42 l-25 45 22 4 c46
9 46 9 39 -40z m-78 -15 c-2 -24 -4 -47 -4 -53 -1 -5 -12 8 -26 30 -22 37 -23
41 -8 53 31 22 41 14 38 -30z m1448 -654 c3 -3 -3 -21 -13 -39 -10 -18 -17
-36 -14 -39 2 -3 0 -3 -5 1 -5 5 -14 25 -19 46 -10 36 -10 37 17 37 15 0 30
-3 34 -6z m73 -16 c-2 -13 -8 -34 -13 -46 -9 -23 -10 -22 -25 16 -18 45 -15
52 19 52 19 0 23 -4 19 -22z m-1571 -187 c1 -37 -25 -47 -55 -19 -15 14 -20
30 -19 56 3 53 7 55 42 22 21 -19 32 -39 32 -59z m405 -282 c19 -26 21 -38 15
-85 -3 -30 -10 -54 -15 -54 -4 0 -15 16 -24 35 -9 19 -21 37 -26 40 -6 4 -6
15 0 30 6 14 10 27 10 30 0 3 0 12 0 20 0 24 17 17 40 -16z m755 -461 c7 -30
-9 -68 -28 -68 -7 0 -20 12 -29 27 -14 24 -14 30 0 71 l15 45 18 -24 c10 -13
21 -36 24 -51z m419 -314 c24 -38 29 -55 27 -102 -1 -31 -6 -61 -11 -66 -7 -7
-10 -6 -10 2 0 7 -11 30 -25 51 -20 32 -24 50 -22 100 1 34 4 61 7 61 3 0 18
-21 34 -46z m-1340 -161 c6 -20 4 -23 -18 -23 -27 0 -32 13 -20 58 6 21 7 22
19 5 7 -10 15 -28 19 -40z m-88 15 c15 -30 15 -32 -2 -45 -20 -15 -34 -2 -29
26 2 9 4 24 4 34 1 25 8 21 27 -15z m1346 -798 c7 -16 16 -30 20 -30 20 0 5
-19 -22 -29 l-31 -10 3 49 c3 57 11 62 30 20z m-58 -70 c-5 -5 -18 -10 -29
-12 -17 -2 -20 2 -19 27 1 17 2 41 3 55 1 22 4 21 27 -18 15 -24 22 -48 18
-52z m936 -237 c18 -32 42 -68 53 -80 11 -13 19 -24 16 -25 -28 -17 -51 -29
-53 -26 -4 6 -53 188 -51 188 2 0 18 -26 35 -57z m-88 10 c21 -42 42 -77 49
-83 3 -3 14 -19 23 -37 15 -31 15 -32 -6 -47 -12 -9 -25 -12 -29 -8 -4 4 -17
43 -28 87 -12 44 -24 88 -27 98 -8 26 3 20 18 -10z"/>
<path d="M2660 4589 c0 -5 5 -7 10 -4 6 3 10 8 10 11 0 2 -4 4 -10 4 -5 0 -10
-5 -10 -11z"/>
<path d="M2740 4550 c6 -11 13 -20 16 -20 2 0 0 9 -6 20 -6 11 -13 20 -16 20
-2 0 0 -9 6 -20z"/>
<path d="M3578 4526 c-18 -11 -35 -23 -38 -26 -3 -3 -18 -15 -33 -27 -24 -19
-116 -101 -227 -203 -72 -66 -174 -156 -192 -169 -11 -7 -32 -25 -47 -40 -16
-14 -57 -51 -91 -81 -35 -30 -74 -64 -86 -75 -12 -11 -53 -47 -90 -80 -38 -33
-76 -68 -86 -77 -23 -23 -23 -20 -14 55 3 26 8 68 12 95 7 61 12 106 19 162 3
25 7 61 10 80 12 118 17 159 21 195 3 22 7 67 9 100 5 59 5 59 -12 35 -9 -14
-20 -27 -23 -30 -3 -3 -14 -16 -24 -30 -18 -25 -18 -25 -14 33 3 31 2 57 -2
57 -9 0 -60 -61 -60 -73 0 -4 -4 -6 -9 -2 -6 3 -8 15 -5 28 17 77 4 98 -31 49
-20 -28 -565 -693 -575 -702 -3 -3 -70 -84 -150 -180 -80 -96 -147 -177 -150
-180 -5 -5 -201 -240 -207 -249 -7 -10 -13 9 -18 55 -3 27 -7 69 -9 94 -3 25
-8 79 -12 120 -3 41 -8 86 -9 100 -2 14 -3 32 -4 41 -1 9 -12 27 -25 41 -22
21 -49 27 -88 19 -7 -1 -44 -61 -45 -74 -1 -4 -8 -18 -16 -31 -9 -12 -93 -175
-187 -362 -95 -186 -177 -344 -182 -351 -5 -7 -11 -18 -12 -25 -3 -17 -134
-278 -147 -294 -6 -7 -12 -19 -13 -26 -4 -21 -330 -673 -338 -676 -5 -2 -8 -9
-8 -16 0 -7 -31 -74 -70 -149 -38 -76 -67 -137 -65 -137 3 0 1 -9 -5 -20 -16
-31 -2 -86 27 -106 21 -13 32 -14 63 -5 42 12 70 37 120 107 19 27 37 51 40
54 4 3 57 70 118 150 62 80 118 152 125 160 7 8 74 94 149 190 76 96 148 188
161 204 l24 29 -2 -319 c0 -175 3 -332 7 -348 9 -34 34 -55 68 -55 43 -1 61
19 254 289 65 91 132 182 147 202 16 20 29 41 29 47 0 5 4 11 8 13 7 2 341
467 431 598 13 19 27 37 31 40 4 3 13 15 19 28 7 13 20 33 29 44 9 11 24 28
32 38 8 9 35 47 60 83 25 37 48 67 51 67 4 0 10 -10 13 -22 11 -38 38 -132 40
-143 1 -5 9 -35 18 -65 9 -30 30 -107 47 -170 18 -63 36 -126 40 -140 5 -14
19 -59 31 -100 24 -82 47 -110 91 -110 35 0 61 27 97 100 15 30 30 57 35 58 4
2 7 8 7 13 0 5 33 71 73 147 41 75 102 191 137 257 35 66 95 181 135 255 72
136 138 260 235 445 29 55 69 132 90 170 42 78 108 204 230 440 46 88 100 192
121 232 27 51 36 81 33 100 -11 61 -62 83 -116 49z m35 -74 l47 -47 -37 -30
c-92 -74 -88 -74 -48 -1 20 37 34 70 31 73 -5 6 -94 -61 -108 -82 -4 -5 -8 -7
-8 -3 0 12 64 138 70 138 3 0 27 -21 53 -48z m-957 -779 c-2 -27 -5 -51 -5
-54 -1 -4 -13 -14 -27 -24 -33 -21 -57 -5 -48 34 5 20 67 89 82 91 2 0 1 -21
-2 -47z m-1318 -93 c8 0 4 -17 -14 -51 -14 -28 -27 -49 -29 -47 -2 1 -5 27 -7
56 -4 50 -3 53 16 48 12 -3 27 -6 34 -6z m80 -25 c1 -1 -9 -24 -22 -51 -14
-27 -26 -42 -27 -34 0 8 -3 34 -5 58 -4 42 -4 42 23 36 16 -4 29 -8 31 -9z
m60 -431 c1 -46 -2 -59 -22 -81 -30 -32 -43 -24 -44 26 -1 30 6 47 31 75 18
20 32 36 32 36 0 0 2 -25 3 -56z m796 4 c5 -24 0 -41 -20 -71 -14 -21 -27 -37
-29 -35 -2 1 -5 17 -8 35 -3 17 -8 37 -12 42 -8 15 26 60 46 61 11 0 19 -12
23 -32z m-1144 -706 c0 -32 -6 -55 -18 -68 -10 -10 -25 -30 -35 -44 -15 -22
-17 -23 -18 -5 -5 68 4 108 28 136 15 16 30 29 35 29 4 0 8 -22 8 -48z m1355
-52 c-6 -10 -45 -1 -45 11 0 5 5 18 12 28 11 18 12 18 25 -6 7 -14 11 -29 8
-33z m79 8 c5 -21 3 -26 -12 -23 -9 2 -20 4 -24 4 -12 1 -9 31 2 31 6 0 10 8
10 17 0 24 16 4 24 -29z m-1432 -700 c-4 -24 -7 -26 -28 -18 -13 5 -24 7 -24
3 0 -3 -3 -4 -6 0 -3 3 7 24 22 46 27 36 29 38 34 18 3 -12 4 -34 2 -49z m74
0 c0 -24 -4 -42 -8 -40 -5 1 -17 5 -28 8 -19 5 -28 24 -12 24 5 0 14 11 20 25
17 38 30 30 28 -17z m-854 -86 c-24 -46 -41 -68 -54 -68 -21 0 -23 9 -5 28 6
7 28 34 47 60 19 26 38 48 41 48 3 0 -10 -31 -29 -68z m53 -59 c-45 -83 -41
-79 -54 -56 -8 16 -1 29 36 76 26 31 48 55 50 53 3 -2 -12 -35 -32 -73z"/>
</g>
</svg>
