<?xml version="1.0" encoding="iso-8859-1"?>
<!-- Generator: Adobe Illustrator 15.0.0, SVG Export Plug-In . SVG Version: 6.00 Build 0)  -->
<!DOCTYPE svg PUBLIC "-//W3C//DTD SVG 1.1//EN" "http://www.w3.org/Graphics/SVG/1.1/DTD/svg11.dtd">
<svg version="1.1" id="Layer_1" xmlns="http://www.w3.org/2000/svg" xmlns:xlink="http://www.w3.org/1999/xlink" x="0px" y="0px"
	 width="1000px" height="850px" viewBox="0 0 1000 850" style="enable-background:new 0 0 1000 850;" xml:space="preserve">
<style type="text/css">
<![CDATA[
]]>
</style>
<g>
	<g>
		<path style="fill-rule:evenodd;clip-rule:evenodd;" d="M63.649,97.397c85.551,21.703,171.936,46.913,258.211,69.557
			c-21.168,9.689-43.717,18-65.554,27.021c44.987,7.058,91.919,12.17,137.112,19.018c0.497,2.148-5.474,7-8.006,10.007
			c-8.548,10.149-17.992,21.789-26.521,32.025c24.467,1.67,51.287,2.787,77.063,4.006c2.938,0.138,7.255-0.341,9.008,2.5
			c-3.621,3.083-8.656,3.312-13.011,4.505c-67.25,18.408-137.91,37.377-205.669,56.045c-0.577-2.136,1.832-4.14,3.002-5.505
			c23.281-27.121,48.848-55.941,72.059-83.568c-67.685-1.037-135.14-2.307-203.167-3.002c28.963-15.907,59.325-30.415,89.073-45.537
			C146.755,154.739,104.984,126.287,63.649,97.397z"/>
		<g>
			<path d="M61.669,104.632c86.402,21.943,171.996,46.91,258.211,69.557c-0.605-4.568-1.211-9.136-1.817-13.705
				c-20.91,9.518-42.463,17.5-63.697,26.246c-3.144,1.295-5.537,3.528-5.561,7.19c-0.021,3.074,2.25,6.778,5.521,7.289
				c45.595,7.122,91.484,12.132,137.112,19.018c-1.84-2.43-3.681-4.859-5.521-7.289c0.021-2.654,0.016-1.282-1.597,0.395
				c-1.167,1.214-2.379,2.383-3.541,3.603c-3.097,3.253-5.837,6.928-8.701,10.387c-6.183,7.467-12.317,14.974-18.519,22.426
				c-4.208,5.055-1.476,12.321,5.278,12.777c14.257,0.963,28.526,1.713,42.798,2.404c6.996,0.339,13.993,0.66,20.989,0.983
				c3.796,0.175,7.593,0.352,11.389,0.529c1.432,0.067,2.855,0.117,4.288,0.138c1.734,0.026,1.427,0.33,1.386,0.282
				c0.493-3.934,0.985-7.868,1.478-11.802c-2.933,2.165-6.179,2.603-9.68,3.363c-4.207,0.913-8.356,2.25-12.508,3.384
				c-9.269,2.533-18.54,5.058-27.811,7.581c-18.752,5.104-37.508,10.191-56.264,15.282c-36.867,10.006-73.731,20.021-110.561,30.165
				c3.147,2.433,6.295,4.866,9.442,7.299c0.028,1.603,1.839-1.455,2.04-1.688c1.619-1.884,3.241-3.765,4.863-5.646
				c3.286-3.809,6.581-7.61,9.878-11.41c6.275-7.233,12.565-14.454,18.847-21.681c12.512-14.398,24.988-28.828,37.266-43.427
				c4.069-4.838,1.591-12.671-5.278-12.777c-67.722-1.04-135.44-2.304-203.167-3.002c1.248,4.657,2.496,9.314,3.744,13.971
				c29.253-16.025,59.34-30.44,89.073-45.537c5.52-2.803,4.13-9.9-0.048-12.965c-40.643-29.809-82.29-58.206-123.602-87.071
				c-7.939-5.547-15.374,7.489-7.5,12.99c41.312,28.865,82.958,57.263,123.602,87.071c-0.016-4.321-0.032-8.643-0.048-12.965
				c-29.733,15.097-59.82,29.512-89.073,45.537c-6.613,3.623-3.534,13.896,3.744,13.971c67.727,0.698,135.445,1.962,203.167,3.002
				c-1.759-4.259-3.519-8.518-5.278-12.777c-13.516,16.071-27.274,31.936-41.052,47.782c-6.678,7.68-13.359,15.356-20.022,23.049
				c-3.267,3.771-6.526,7.549-9.779,11.333c-3.184,3.703-6.467,6.914-6.377,12.131c0.083,4.833,4.651,8.618,9.442,7.299
				c37.457-10.317,74.949-20.5,112.444-30.676c18.749-5.089,37.498-10.176,56.244-15.277c9.265-2.521,18.528-5.047,27.791-7.578
				c7.699-2.103,17.518-2.966,24.059-7.793c4.126-3.045,4.817-7.823,1.478-11.802c-4.44-5.292-11.784-4.555-18.009-4.847
				c-8.255-0.387-16.51-0.763-24.765-1.151c-16.18-0.762-32.358-1.585-48.52-2.677c1.759,4.259,3.519,8.518,5.278,12.777
				c7.361-8.844,14.634-17.761,21.99-26.61c2.823-3.396,5.665-6.669,8.771-9.806c2.965-2.994,5.9-6.407,5.935-10.838
				c0.025-3.061-2.252-6.796-5.521-7.289c-45.628-6.886-91.519-11.896-137.112-19.018c-0.013,4.826-0.026,9.653-0.04,14.479
				c22.475-9.256,45.28-17.722,67.411-27.795c6.102-2.778,4.022-12.171-1.817-13.705c-86.216-22.647-171.81-47.614-258.211-69.557
				C56.244,87.778,52.295,102.251,61.669,104.632z"/>
		</g>
	</g>
	<g>
		<path style="fill-rule:evenodd;clip-rule:evenodd;" d="M323.862,355.107c-2.739,31.122-7.392,64.667-11.008,96.58
			c9.198-6.592,17.84-14.551,26.522-22.52c17.124-15.72,35.54-30.643,53.043-46.538c8.62-7.827,16.562-16.361,26.02-22.517
			c-37.003,71.751-75.086,142.423-112.591,213.674c-8.603-27.928-15.871-57.189-24.02-85.569
			c-37.58,49.492-75.293,105.854-112.592,155.627c0-28.857,0-57.714,0-86.569c-25.478,31.14-52.086,66.22-78.064,99.079
			c-1.376,1.74-2.608,5.171-5.505,5.005c-0.484-2.231,1.058-4.628,2.001-6.506c34.185-67.994,68.881-139.694,104.085-207.17
			c1.6,20.251,3.755,39.947,6.004,59.55C239.365,458.097,282.22,405.874,323.862,355.107z"/>
		<g>
			<path d="M316.361,355.053c-2.875,32.28-7.344,64.387-11.008,96.581c-0.623,5.469,6.888,9.729,11.299,6.523
				c19.08-13.863,35.851-30.925,53.711-46.294c9.195-7.912,18.396-15.816,27.388-23.958c8.026-7.267,15.441-15.278,24.485-21.322
				c-3.431-3.407-6.862-6.813-10.293-10.22c-36.912,71.549-75.086,142.436-112.591,213.674c4.58,0.603,9.16,1.206,13.74,1.809
				c-8.688-28.329-15.866-57.087-24.02-85.569c-1.959-6.843-9.941-6.818-13.74-1.809c-38.695,51.028-74.22,104.361-112.592,155.627
				c4.666,1.268,9.331,2.536,13.997,3.804c0-28.856,0-57.713,0-86.569c0-6.108-8.485-10.651-12.834-5.329
				c-14.177,17.349-28,34.982-41.775,52.652c-7.039,9.029-14.063,18.069-21.109,27.094c-3.499,4.481-7.006,8.956-10.521,13.425
				c-1.55,1.972-3.104,3.94-4.659,5.908c-0.699,0.884-1.844,3.191-2.825,3.677c1.284-0.344,2.568-0.688,3.852-1.032
				c-0.381,0.045-0.763,0.09-1.145,0.134c2.482,2.519,4.965,5.037,7.447,7.556c-0.146-2.89,3.13-7.059,4.416-9.621
				c2.288-4.562,4.57-9.125,6.851-13.69c4.304-8.616,8.595-17.24,12.881-25.866c8.931-17.972,17.838-35.956,26.774-53.925
				c17.784-35.762,35.694-71.462,54.159-106.877c-4.666-1.268-9.331-2.536-13.997-3.804c1.59,19.89,3.733,39.727,6.004,59.55
				c0.663,5.79,8.062,10.967,12.834,5.329c42.556-50.273,84.331-101.201,126.104-152.126c6.076-7.407-4.517-18.047-10.665-10.551
				c-41.772,50.924-83.548,101.852-126.104,152.126c4.278,1.776,8.556,3.553,12.834,5.329c-2.271-19.822-4.414-39.659-6.004-59.55
				c-0.556-6.952-10.248-10.993-13.997-3.804c-18.766,35.99-36.954,72.277-55.026,108.62c-9.221,18.541-18.41,37.099-27.627,55.643
				c-4.567,9.188-9.143,18.372-13.732,27.55c-2.277,4.555-4.56,9.106-6.846,13.657c-1.925,3.832-4.086,7.471-3.862,11.902
				c0.186,3.681,3.223,8.049,7.447,7.556c5.147-0.602,8.04-2.727,10.868-6.975c3.16-4.747,7.004-9.113,10.522-13.604
				c7.446-9.504,14.854-19.038,22.272-28.563c14.938-19.183,29.908-38.342,45.293-57.169c-4.278-1.776-8.556-3.553-12.834-5.329
				c0,28.856,0,57.713,0,86.569c0,8.138,9.742,9.488,13.997,3.804c38.372-51.266,73.897-104.599,112.592-155.627
				c-4.58-0.603-9.16-1.206-13.74-1.809c8.154,28.481,15.332,57.24,24.02,85.569c1.833,5.976,10.562,7.846,13.74,1.809
				c37.505-71.238,75.679-142.125,112.591-213.674c3.235-6.271-3.691-14.632-10.293-10.22c-9.167,6.126-16.976,13.833-24.987,21.344
				c-8.765,8.218-17.952,15.999-27.058,23.832c-9.126,7.851-18.253,15.701-27.162,23.8c-8.571,7.792-16.992,15.778-26.378,22.598
				c3.767,2.175,7.533,4.35,11.299,6.523c3.665-32.193,8.133-64.3,11.008-96.58C332.224,345.504,317.211,345.5,316.361,355.053z"/>
		</g>
	</g>
	<g>
		<path style="fill-rule:evenodd;clip-rule:evenodd;" d="M425.947,116.913c22.172,14.356,44.287,33.108,67.055,48.539
			c-6.646-29.884-13.074-59.986-19.517-90.073c2.052-0.693,3.805,1.443,5.503,2.501c13.223,8.243,28.644,17.835,42.536,26.021
			c-0.422-22.098-1.904-47.47-3.004-70.558c18.83,37.049,36.854,74.908,55.047,112.592c-19.172-3.515-38.441-6.929-57.547-10.508
			c4.707,22.813,12.322,47.059,18.014,70.558c-17.703-7.151-35.407-14.299-53.044-21.518c-2.358,14.489-1.835,31.858-7.005,43.536
			C457.361,191.584,442.399,153.504,425.947,116.913z"/>
		<g>
			<path d="M422.197,123.408c23.134,15.081,44.243,32.997,67.055,48.539c5.739,3.91,12.308-2.524,10.995-8.436
				c-6.664-29.99-13.084-60.033-19.517-90.073c-2.433,3.147-4.866,6.295-7.299,9.442c-0.249-0.133-0.497-0.267-0.746-0.401
				c0.832,0.659,1.683,1.291,2.553,1.896c1.837,1.311,3.874,2.414,5.791,3.607c4.038,2.513,8.08,5.02,12.128,7.517
				c8.163,5.038,16.358,10.02,24.618,14.897c4.773,2.819,11.365-0.793,11.252-6.441c-0.477-23.538-1.877-47.045-3.004-70.558
				c-4.656,1.248-9.314,2.496-13.971,3.744c18.914,37.252,36.887,74.969,55.047,112.592c2.816-3.678,5.633-7.355,8.449-11.033
				c-19.18-3.513-38.379-6.924-57.547-10.508c-5.707-1.067-10.443,3.346-9.225,9.176c4.975,23.773,12.258,46.976,18.014,70.558
				c3.074-3.059,6.15-6.117,9.225-9.176c-17.691-7.147-35.384-14.293-53.044-21.518c-3.493-1.429-8.641,1.544-9.215,5.254
				c-2.09,13.497-0.922,28.998-6.265,41.767c4.322-0.016,8.643-0.032,12.965-0.048c-16.724-36.721-31.522-74.278-48.039-111.091
				c-1.676-3.735-7.034-4.567-10.268-2.672c-3.81,2.233-4.344,6.541-2.672,10.268c16.517,36.812,31.315,74.37,48.039,111.091
				c2.202,4.833,10.864,4.973,12.965-0.048c6.046-14.449,5.386-30.072,7.745-45.306c-3.072,1.751-6.144,3.503-9.215,5.254
				c17.66,7.225,35.353,14.371,53.044,21.518c5.549,2.241,10.443-4.187,9.225-9.176c-5.754-23.583-13.039-46.785-18.014-70.558
				c-3.074,3.059-6.148,6.117-9.225,9.176c19.168,3.585,38.367,6.996,57.547,10.508c6.664,1.221,11.41-4.899,8.451-11.033
				c-18.16-37.623-36.133-75.339-55.047-112.592c-3.336-6.567-14.322-3.572-13.973,3.744c1.127,23.513,2.529,47.02,3.004,70.558
				c3.75-2.147,7.5-4.294,11.252-6.441c-8.779-5.185-17.484-10.494-26.161-15.849c-4.511-2.784-9.011-5.584-13.51-8.387
				c-3.803-2.369-7.277-5.725-12.065-5.293c-4.987,0.448-8.388,4.354-7.299,9.442c6.432,30.041,12.854,60.083,19.517,90.073
				c3.665-2.812,7.33-5.624,10.995-8.436c-22.812-15.542-43.921-33.458-67.055-48.539
				C421.578,105.125,414.12,118.143,422.197,123.408z"/>
		</g>
	</g>
	<g>
		<path style="fill-rule:evenodd;clip-rule:evenodd;" d="M668.645,269.037c-7.713-8.179-23.465-4.917-39.031-4.003
			c-27.484,1.615-58.812,2.894-85.57,4.503c51.514-28.051,104.895-54.234,156.127-82.566c-29.633-2.562-58.205-6.18-87.57-9.009
			c58.447-19.282,117.201-38.258,176.145-57.046c-40.254-8.787-81.299-16.782-122.102-25.021
			c83.629-13.786,168.572-26.256,252.709-39.533c-28.584,17.788-57.354,35.39-86.572,52.543
			c25.881,7.313,53.541,12.848,80.566,19.015c-55.646,19.249-112.178,37.61-168.639,56.046
			c37.82,6.216,77.744,10.328,116.096,16.013c-68.275,16.293-137.314,31.825-206.168,47.539
			c48.082,5.793,98.275,9.479,146.619,15.012c-74.84,16.737-150.871,32.278-225.686,49.041
			C604.299,297.375,636.195,281.444,668.645,269.037z"/>
		<g>
			<path d="M673.92,263.705c-6.957-6.745-16.414-7.794-25.689-7.526c-11.451,0.331-22.926,1.624-34.373,2.231
				c-23.252,1.234-46.516,2.238-69.76,3.625c1.248,4.657,2.496,9.314,3.744,13.972c51.719-28.132,104.586-54.101,156.127-82.566
				c6.938-3.832,3.24-13.362-3.744-13.971c-29.236-2.552-58.363-6.176-87.572-9.009c0.629,4.915,1.26,9.831,1.889,14.746
				c58.611-19.332,117.342-38.3,176.145-57.046c6.713-2.14,7.723-12.805,0.039-14.479c-40.596-8.846-81.375-16.803-122.102-25.021
				c-0.014,4.826-0.025,9.653-0.039,14.479c84.129-13.857,168.49-26.25,252.709-39.533c-1.912-4.572-3.826-9.143-5.738-13.714
				c-28.664,17.832-57.467,35.442-86.572,52.543c-5.627,3.306-4.424,11.954,1.816,13.705c26.582,7.458,53.662,12.894,80.566,19.015
				c0.014-4.826,0.027-9.653,0.039-14.479c-55.986,19.354-112.328,37.66-168.639,56.046c-6.451,2.107-7.959,13.187-0.039,14.479
				c38.564,6.297,77.447,10.313,116.096,16.013c0.014-4.826,0.025-9.653,0.039-14.479c-68.604,16.363-137.41,31.849-206.168,47.539
				c-8.875,2.025-5.969,13.805,1.887,14.746c48.785,5.847,97.805,9.453,146.621,15.012c-0.631-4.916-1.26-9.831-1.889-14.747
				c-75.131,16.791-150.559,32.221-225.686,49.041c1.914,4.572,3.826,9.143,5.74,13.714c29.98-14.818,59.973-29.749,91.219-41.76
				c3.814-1.467,6.445-4.923,5.303-9.186c-0.973-3.635-5.361-6.773-9.186-5.304c-32.508,12.498-63.738,27.893-94.932,43.31
				c-7.883,3.896-2.207,15.493,5.738,13.714c75.125-16.82,150.555-32.251,225.686-49.041c8.859-1.98,5.988-13.85-1.887-14.746
				c-48.816-5.56-97.834-9.166-146.621-15.012c0.629,4.915,1.26,9.831,1.889,14.746c68.758-15.69,137.564-31.177,206.168-47.539
				c6.857-1.636,7.615-13.362,0.039-14.479c-38.648-5.7-77.535-9.716-116.096-16.013c-0.014,4.826-0.025,9.653-0.039,14.479
				c56.311-18.387,112.65-36.693,168.639-56.046c6.609-2.285,7.809-12.712,0.039-14.479c-26.904-6.122-53.986-11.558-80.566-19.015
				c0.605,4.568,1.211,9.136,1.818,13.705c29.105-17.102,57.908-34.712,86.572-52.543c7.566-4.708,2.369-14.993-5.74-13.714
				c-84.219,13.283-168.58,25.676-252.709,39.533c-7.35,1.211-7.145,13.046-0.039,14.479c40.727,8.218,81.506,16.175,122.102,25.021
				c0.014-4.826,0.027-9.653,0.039-14.479c-58.801,18.746-117.533,37.714-176.145,57.046c-8.287,2.733-6.5,13.933,1.887,14.746
				c29.209,2.833,58.336,6.457,87.572,9.009c-1.248-4.657-2.496-9.314-3.744-13.971c-51.541,28.466-104.408,54.435-156.127,82.566
				c-6.354,3.455-3.723,14.417,3.744,13.972c21.445-1.28,42.91-2.243,64.367-3.345c10.514-0.54,21.025-1.075,31.518-1.964
				c6.887-0.583,17.939-2.746,23.494,2.64C670.305,281.093,680.885,270.454,673.92,263.705z"/>
		</g>
	</g>
	<g>
		<path style="fill-rule:evenodd;clip-rule:evenodd;" d="M566.062,376.124c26.623,21.084,53.137,46.61,80.064,69.058
			c1.881-32.981,4.156-65.566,6.004-98.581c36.357,58.388,71.816,117.676,108.088,176.146
			c12.656-35.218,25.076-70.67,37.033-106.588c28.867,83.203,56.357,169.174,84.568,253.208c1.713,5.101,4.002,16.014,4.002,16.014
			s-2.471-2.608-3-3.504c-47.173-79.835-56.625-102.107-82.068-143.617c-2.238,36.959-5.281,73.116-8.006,109.589
			c-36.594-61.987-72.498-124.661-109.092-186.652c-6.504,34.694-12.627,69.771-18.514,105.085
			C631.545,503.468,599.582,439.015,566.062,376.124z"/>
		<g>
			<path d="M560.787,381.457c27.603,21.943,53.02,46.453,80.064,69.057c5.01,4.188,12.389,1.494,12.777-5.278
				c1.883-32.867,4.155-65.711,6.004-98.581c-4.657,1.248-9.314,2.496-13.972,3.744c36.404,58.485,71.782,117.6,108.088,176.146
				c3.592,5.792,11.537,4.218,13.705-1.817c12.716-35.399,25.143-70.902,37.033-106.588c-4.827-0.013-9.653-0.026-14.479-0.04
				c16.368,47.206,32.089,94.632,47.741,142.08c7.755,23.507,15.493,47.02,23.283,70.515c6.207,18.721,13.468,37.298,17.546,56.628
				c4.173-2.425,8.347-4.85,12.52-7.274c-5.355-5.698-9.643-15.275-14.014-22.781c-4.761-8.173-9.479-16.37-14.163-24.587
				c-7.205-12.642-14.292-25.351-21.325-38.088c-11.164-20.217-22.311-40.429-34.372-60.13c-3.993-6.522-13.524-3.583-13.972,3.744
				c-2.229,36.561-5.271,73.063-8.006,109.589c4.657-1.248,9.314-2.496,13.972-3.744c-36.628-62.062-72.465-124.589-109.092-186.652
				c-3.102-5.255-12.47-4.781-13.705,1.817c-6.545,34.962-12.66,70.002-18.514,105.085c4.568-0.605,9.137-1.212,13.705-1.817
				c-33.694-63.036-65.479-127.07-99.08-190.156c-4.547-8.536-17.481-0.933-12.939,7.596
				c33.602,63.085,65.386,127.119,99.08,190.156c2.892,5.41,12.624,4.66,13.705-1.817c5.854-35.084,11.968-70.124,18.514-105.085
				c-4.568,0.605-9.137,1.211-13.705,1.817c36.627,62.063,72.464,124.589,109.092,186.652c3.951,6.694,13.434,3.441,13.972-3.744
				c2.734-36.524,5.776-73.027,8.006-109.589c-4.657,1.248-9.314,2.496-13.972,3.744c12.062,19.7,23.211,39.911,34.372,60.13
				c7.264,13.159,14.596,26.28,22.039,39.339c4.732,8.304,9.515,16.58,14.324,24.84c4.777,8.202,8.99,17.391,15.527,24.348
				c5.38,5.725,13.984-0.332,12.52-7.274c-3.945-18.703-10.921-36.665-16.932-54.776c-8-24.11-15.939-48.241-23.896-72.366
				c-15.651-47.447-31.374-94.873-47.742-142.079c-2.457-7.088-12.057-7.312-14.479-0.04
				c-11.89,35.686-24.317,71.188-37.033,106.588c4.568-0.605,9.137-1.211,13.705-1.817
				c-36.306-58.545-71.684-117.661-108.088-176.146c-4.016-6.451-13.556-3.641-13.972,3.744c-1.848,32.87-4.121,65.713-6.004,98.582
				c4.26-1.76,8.519-3.52,12.777-5.278c-27.044-22.605-52.462-47.115-80.064-69.058c-3.193-2.539-7.5-3.09-10.607,0.057
				C558.092,373.52,557.579,378.907,560.787,381.457z"/>
		</g>
	</g>
</g>
<g>
	<g>
		<path style="fill:#1D1D1B;" d="M581.008,604.385c-32.99,32.991-65.982,65.982-98.973,98.975c-0.358,0.357-0.715,0.715-1.073,1.072
			c3.536-0.02,7.072-0.038,10.608-0.057c-32.991-32.991-65.982-65.982-98.974-98.974c-0.357-0.357-0.715-0.715-1.072-1.073
			c-0.493,3.935-0.985,7.868-1.478,11.803c33.349-19.517,66.697-39.033,100.046-58.55c-2.516,0.009-5.032,0.017-7.548,0.025
			c33.348,19.517,66.698,39.032,100.045,58.549c8.357,4.892,15.854-8.103,7.5-12.99c-33.348-19.517-66.697-39.032-100.045-58.549
			c-2.306-1.35-5.247-1.32-7.548,0.025c-33.349,19.517-66.697,39.033-100.046,58.55c-4.2,2.458-4.901,8.379-1.478,11.803
			c32.992,32.99,65.983,65.981,98.974,98.973c0.357,0.357,0.715,0.715,1.073,1.072c2.899,2.9,7.73,2.821,10.608-0.057
			c32.99-32.991,65.982-65.982,98.973-98.975c0.357-0.357,0.715-0.715,1.072-1.072C598.508,608.1,587.859,597.532,581.008,604.385z"
			/>
	</g>
</g>
<g>
	<g>
		<path style="fill:#1D1D1B;" d="M554.547,545.836c-24.527,24.528-49.057,49.057-73.585,73.586c3.536-0.02,7.072-0.038,10.608-0.057
			c-24.528-24.529-49.057-49.058-73.586-73.586c-0.492,3.934-0.985,7.867-1.478,11.802c24.602-18.131,49.203-36.262,73.805-54.393
			c-2.516,0.009-5.032,0.017-7.548,0.025c24.456,18.131,48.911,36.262,73.368,54.393c3.289,2.438,8.377,0.491,10.244-2.745
			c2.219-3.841,0.537-7.812-2.744-10.245c-24.457-18.131-48.912-36.262-73.368-54.393c-1.923-1.426-5.633-1.386-7.548,0.025
			c-24.602,18.131-49.203,36.262-73.805,54.393c-3.855,2.842-5.178,8.103-1.478,11.802c24.528,24.529,49.057,49.058,73.586,73.586
			c2.899,2.9,7.73,2.821,10.608-0.057c24.529-24.528,49.057-49.057,73.586-73.586C572.049,549.551,561.4,538.983,554.547,545.836z"
			/>
	</g>
</g>
<g>
	<g>
		<path style="fill:#1D1D1B;" d="M537.619,497.373c-18.885,18.886-37.772,37.772-56.658,56.659c3.536-0.02,7.072-0.038,10.608-0.058
			c-18.886-18.886-37.772-37.772-56.658-56.658c0.019,3.535,0.038,7.071,0.057,10.607c18.886-18.886,37.773-37.771,56.659-56.658
			c-3.536,0.02-7.072,0.038-10.608,0.057c18.886,18.887,37.772,37.772,56.659,56.658c6.834,6.836,17.402-3.812,10.551-10.664
			c-18.887-18.887-37.772-37.772-56.659-56.658c-2.899-2.9-7.73-2.821-10.608,0.057c-18.886,18.886-37.773,37.771-56.659,56.658
			c-2.9,2.899-2.821,7.729,0.057,10.607c18.886,18.887,37.772,37.773,56.658,56.66c2.899,2.899,7.73,2.82,10.608-0.058
			c18.886-18.886,37.772-37.772,56.659-56.659C555.121,501.089,544.473,490.521,537.619,497.373z"/>
	</g>
</g>
<g>
	<g>
		<path style="fill:#1D1D1B;" d="M473.379,340.193c-11.768,33.167-23.535,66.334-35.303,99.501
			c-21.408,60.338-42.816,120.675-64.224,181.012c-10.292,29.007-20.583,58.014-30.875,87.021
			c-3.244,9.144,11.259,13.012,14.471,3.961c11.768-33.167,23.535-66.334,35.303-99.501
			c21.408-60.338,42.816-120.675,64.224-181.012c10.292-29.007,20.583-58.014,30.875-87.021
			C491.094,335.011,476.591,331.142,473.379,340.193L473.379,340.193z"/>
	</g>
</g>
<g>
	<g>
		<path style="fill:#1D1D1B;" d="M484.595,343.895c11.768,33.167,23.536,66.334,35.304,99.501
			c21.408,60.338,42.816,120.675,64.223,181.012c10.293,29.008,20.584,58.015,30.877,87.021c3.211,9.053,17.725,5.24,14.488-3.883
			c-11.768-33.167-23.535-66.334-35.303-99.501c-21.408-60.338-42.816-120.675-64.225-181.013
			c-10.291-29.006-20.584-58.013-30.875-87.02C495.872,330.96,481.358,334.772,484.595,343.895L484.595,343.895z"/>
	</g>
</g>
<g>
	<g>
		<path style="fill:#1D1D1B;" d="M493.796,709.761c0-36.594,0-73.188,0-109.781c0-63.165,0-126.33,0-189.495
			c0-22.752,0-45.504,0-68.256c0-9.687-15.004-9.772-15.004-0.108c0,36.594,0,73.188,0,109.782c0,63.165,0,126.33,0,189.495
			c0,22.752,0,45.504,0,68.257C478.792,719.339,493.796,719.425,493.796,709.761L493.796,709.761z"/>
	</g>
</g>
<g>
	<g>
		<path style="fill:#1D1D1B;" d="M524.943,447.682c-14.587,14.587-29.175,29.174-43.763,43.762c3.536-0.02,7.072-0.038,10.608-0.057
			c-14.588-14.588-29.176-29.175-43.765-43.762c0.019,3.535,0.038,7.071,0.057,10.607c14.588-14.588,29.176-29.177,43.765-43.766
			c-3.536,0.019-7.072,0.038-10.608,0.057c14.588,14.588,29.176,29.177,43.764,43.765c6.834,6.836,17.402-3.812,10.551-10.664
			c-14.588-14.589-29.176-29.178-43.764-43.766c-2.899-2.9-7.73-2.821-10.608,0.057c-14.588,14.588-29.176,29.177-43.765,43.766
			c-2.899,2.899-2.821,7.73,0.057,10.607c14.588,14.588,29.176,29.175,43.765,43.762c2.899,2.9,7.73,2.821,10.608-0.057
			c14.588-14.587,29.176-29.174,43.764-43.762C542.445,451.397,531.797,440.829,524.943,447.682z"/>
	</g>
</g>
<g>
	<g>
		<path style="fill:#1D1D1B;" d="M506.234,314c-0.268,10.563-8.349,18.787-18.946,19.054c-10.563,0.268-18.796-8.748-19.054-18.946
			c-0.268-10.564,8.747-18.796,18.946-19.054C497.744,294.787,505.977,303.802,506.234,314c0.244,9.667,15.248,9.775,15.004,0.108
			c-0.477-18.821-15.09-33.581-33.95-34.058c-18.818-0.476-33.599,15.805-34.058,33.95c-0.476,18.817,15.806,33.599,33.95,34.058
			c18.816,0.476,33.6-15.806,34.059-33.95C521.482,304.415,506.479,304.353,506.234,314z"/>
	</g>
</g>
<g>
	<g>
		<path style="fill:#1D1D1B;" d="M493.796,709.761c0-41.152,0-82.306,0-123.458c0-56.271,0-112.54,0-168.811
			c0-4.762,0-9.524,0-14.286c0-9.687-15.004-9.772-15.004-0.108c0,41.153,0,82.306,0,123.458c0,56.271,0,112.54,0,168.811
			c0,4.762,0,9.523,0,14.286C478.793,719.339,493.796,719.425,493.796,709.761L493.796,709.761z"/>
	</g>
</g>
<g>
	<g>
		<path style="fill:#1D1D1B;" d="M487.18,321.557c9.687,0,9.772-15.004,0.108-15.004
			C477.602,306.553,477.516,321.557,487.18,321.557L487.18,321.557z"/>
	</g>
</g>
<text transform="matrix(1 0 0 1 48.4248 811.0742)" style="fill:#231F20; font-family:'Phosphate-Solid'; font-size:73.1966;">FAREWELL TRANSMISSION PR</text>
</svg>
